<svg fill="#fff" xmlns="http://www.w3.org/2000/svg" width="1116" height="778.96" viewBox="0 0 1116 778.96">
  <g id="Group_11" data-name="Group 11" transform="translate(649.75 14642.96)">
    <g id="Research" transform="translate(-332 -14644.96)">
      <path id="Path_41" data-name="Path 41" d="M84.591,26.937A119.158,119.158,0,1,0,247.37,70.549,119.158,119.158,0,0,0,84.591,26.937ZM231.486,79.715A100.826,100.826,0,1,1,43.491,128.7L82.318,165a27.5,27.5,0,1,0,48.983-2.566l40.835-52.173a27.15,27.15,0,0,0,8.7,1.54,27.5,27.5,0,1,0-27.5-27.5,27.214,27.214,0,0,0,4.345,14.666l-40.23,51.394a26.453,26.453,0,0,0-22.558,1.274l-48.58-45.4A100.734,100.734,0,0,1,231.467,79.651ZM116.672,175.958a9.166,9.166,0,1,1-9.166-9.166A9.166,9.166,0,0,1,116.672,175.958Zm55-91.66a9.166,9.166,0,1,1,9.166,9.166A9.166,9.166,0,0,1,171.668,84.3Z" transform="translate(187.806 73.524)" />
      <path id="Path_42" data-name="Path 42" d="M540.448,473.132,477.074,363.305a9.166,9.166,0,0,0-12.521-3.355l-7.938,4.583-24.207-41.916a155.547,155.547,0,0,0-8.772-244.906V11.166A9.166,9.166,0,0,0,414.47,2H102.826a9.165,9.165,0,0,0-6.479,2.684L4.686,96.346A9.166,9.166,0,0,0,2,102.826V542.794a9.166,9.166,0,0,0,9.166,9.166h403.3a9.166,9.166,0,0,0,9.166-9.166V454.076l37.434,64.886a45.83,45.83,0,1,0,79.378-45.831ZM440.74,373.7l-15.876,9.166L401.8,342.92c2.75-1.366,5.426-2.75,8.084-4.317s5.151-3.309,7.709-4.986Zm10.3-238.793a137.93,137.93,0,1,1-83.484-64.061,137.93,137.93,0,0,1,83.484,64.061ZM93.66,33.293V93.66H33.293ZM405.3,533.628H20.332V111.992h82.494a9.166,9.166,0,0,0,9.166-9.166V20.332H405.3V66.281a155.125,155.125,0,0,0-214.888,72.714l-7.4-6.893a27.5,27.5,0,1,0-45.931,6.92L89.334,222.433a28.028,28.028,0,0,0-4.84-.449,27.821,27.821,0,1,0,20.733,9.634l47.755-83.411a28.033,28.033,0,0,0,4.84.449,27.168,27.168,0,0,0,12.622-3.208L183.4,157.51a155.5,155.5,0,0,0,201.432,192.7l24.134,41.834-7.929,4.583a9.166,9.166,0,0,0-3.355,12.521l7.617,13.172ZM148.656,121.158a9.166,9.166,0,1,1,9.166,9.166A9.166,9.166,0,0,1,148.656,121.158Zm-55,128.324a9.166,9.166,0,1,1-9.166-9.166A9.166,9.166,0,0,1,93.66,249.482ZM527.322,503.114a27.5,27.5,0,0,1-50.413,6.636L418.136,407.916l47.663-27.5L524.572,482.3A27.352,27.352,0,0,1,527.322,503.114Z" />
      <path id="Path_43" data-name="Path 43" d="M310.478,170.324h-9.166V87.83a9.166,9.166,0,0,0-9.166-9.166H255.482a9.166,9.166,0,0,0-9.166,9.166v82.494H227.984V51.166A9.166,9.166,0,0,0,218.818,42H182.154a9.166,9.166,0,0,0-9.166,9.166V170.324H154.656V87.83a9.166,9.166,0,0,0-9.166-9.166H108.826A9.166,9.166,0,0,0,99.66,87.83v82.494H81.328v-45.83a9.166,9.166,0,0,0-9.166-9.166H35.5a9.166,9.166,0,0,0-9.166,9.166v45.83H17.166a9.166,9.166,0,0,0,0,18.332H310.478a9.166,9.166,0,0,0,0-18.332Zm-265.814,0V133.66H63v36.664Zm73.328,0V97h18.332v73.328Zm73.328,0V60.332h18.332V170.324Zm73.328,0V97H282.98v73.328Z" transform="translate(48.996 326.64)" />
      <path id="Path_44" data-name="Path 44" d="M16.166,54.332H126.158a9.166,9.166,0,1,0,0-18.332H16.166a9.166,9.166,0,1,0,0,18.332Z" transform="translate(40.83 277.644)" />
      <path id="Path_45" data-name="Path 45" d="M126.158,58.332a9.166,9.166,0,1,0,0-18.332H16.166a9.166,9.166,0,1,0,0,18.332Z" transform="translate(40.83 310.308)" />
    </g>
    <path id="Path_46" data-name="Path 46" d="M25.5-138H90.75q12.563,0,15,15.75,0,8.625-28.5,90.75Q67.125-1.687,65.25,0H.75L-.75-.75Q21-62.25,37.5-115.5V-120q0-7.687-12-17.25Zm84.188,0h210.75q31.688,0,41.25,24a58.713,58.713,0,0,1,.75,8.25q-3.937,23.25-7.5,23.25-4.875,8.25-22.5,12.75h-.75V-69q13.313,0,16.5,11.25v2.25Q335.625-9,327.188-9q-11.812,9-24,9H83.438q37.5-112.312,37.5-114.75v-7.5q0-7.312-11.25-14.25Zm69,56.25h108.75q1.875,0,6.75-19.5v-2.25q0-5.25-5.25-5.25h-96q-8.062,0-12,20.25Q179.813-88.5,178.688-81.75Zm-9.75,27q0,1.688-6,19.5,1.125,6,6,6h96q8.25,0,11.25-18,.75,0,3-7.5ZM372.188-138h218.25q21,0,33.75,20.25a58.058,58.058,0,0,1,1.5,11.25q0,13.313-11.25,32.25Q591.375-54,537.188-54v.75q28.125,17.063,80.25,67.5,21.75,25.688,21.75,26.25,3,3.75,3,4.5h-.75q-132-78.187-198.75-99h-10.5q-1.5,0-14.25,40.5-4.125,11.813-6,13.5h-64.5l-1.5-.75q21.75-61.5,38.25-114.75V-120q0-7.687-12-17.25Zm70.5,54h109.5q5.25-15.75,5.25-18v-2.25q0-5.25-5.25-5.25h-85.5q-15.562,0-19.5,12Zm185.438-54h210.75q31.688,0,41.25,24a58.713,58.713,0,0,1,.75,8.25q0,14.625-33,105.75h-66.75l-1.5-.75q13.5-36.562,15.75-45h-109.5q-1.5,0-14.25,40.5-2.062,5.25-3,5.25h-66.75q37.5-112.312,37.5-114.75v-7.5q0-7.312-11.25-14.25Zm66,63.75h110.25q8.25-24.562,8.25-27v-2.25q0-5.25-5.25-5.25h-96q-8.062,0-12,20.25Q698.813-88.5,694.125-74.25ZM888-138h227.25v.75q-26.062,28.5-71.25,28.5H977.25q-12.187,0-15.75,21.75Q945-41.25,945-35.25,947.25-30,951.75-30h54.75q51.375,0,62.25,13.5A61.749,61.749,0,0,1,1081.5-.75L1080,0H947.25q-73.5,0-73.5-25.5,0-2.437,27.75-88.5v-6q0-9.937-13.5-16.5Z" transform="translate(-649 -13909)" />
  </g>
</svg>
